# xmcd
#
# Track frame offsets: 
#        150
#        15167
#        27725
#        42213
#        55042
#        68967
#        82679
#        96345
#        109354
#        122798
#        134555
#        145833
#        154765
#        162383
#        173706
#        182976
#        188988
#        200131
#        212934
#        225225
#
# Disc length: 3130 seconds
#
# Revision: 0
# Processed by: cddbd v1.5.2PL0 Copyright (c) Steve Scherf et al.
# Submitted via: ExactAudioCopy v1.0b3
#
DISCID=1d0c3814
DTITLE=Gene Autry - Tumbling Tumbleweeds - CD2
DYEAR=2010
DGENRE=Western
TTITLE0=Tumbling Tumbleweeds  (1935)
TTITLE1=Have I Told You Lately That I Love You  (1945)
TTITLE2=Blue Hawaii  (1937)
TTITLE3=That Silver Haired Daddy Of Mine  (1931)
TTITLE4=Yodelling Hobo  (1930)
TTITLE5=Bear Cat Mama From Horners Corner  (1931)
TTITLE6=She's A Low Down Mama  (1930)
TTITLE7=In The Jailhouse Now #2  (1930)
TTITLE8=Guns And Guitars  (1936)
TTITLE9=Blueberry Hill  (1940)
TTITLE10=Rhythm Of The Range  (1937)
TTITLE11=Gaucho Serenade  (1940)
TTITLE12=Ride Tenderfoot Ride  (1940)
TTITLE13=When The Swallows Came Back To Capistrano  (1940)
TTITLE14=In Old Capistrano  (1943)
TTITLE15=Ride Ranger Ride  (1936)
TTITLE16=It's Round-Up Time In Reno  (1937)
TTITLE17=Little Old Band Of Gold  (1939)
TTITLE18=It Makes Noe Difference Now  (1941)
TTITLE19=Sioux City Sue  (1946)
EXTD=
EXTT0=
EXTT1=
EXTT2=
EXTT3=
EXTT4=
EXTT5=
EXTT6=
EXTT7=
EXTT8=
EXTT9=
EXTT10=
EXTT11=
EXTT12=
EXTT13=
EXTT14=
EXTT15=
EXTT16=
EXTT17=
EXTT18=
EXTT19=
PLAYORDER=
